<svg xmlns="http://www.w3.org/2000/svg" viewBox="0 0 80 80">
  <path fill="#53FC18" d="M350 570 c0 -47 2 -50 25 -50 20 0 25 5 25 25 0 20
  5 25 25 25 20 0 25 5 25 25 0 24 2 25 75 25 l76 0 -3 -72 c-3 -67 -5 -73 -25
  -76 -15 -2 -23 -10 -23 -23 0 -14 -7 -19 -25 -19 -21 0 -25 -5 -25 -30 0 -25
  4 -30 25 -30 18 0 25 -5 25 -19 0 -13 8 -21 23 -23 20 -3 22 -9 25 -75 l3 -73
  -76 0 c-73 0 -75 1 -75 25 0 20 -5 25 -25 25 -20 0 -25 5 -25 25 0 20 -5 25
  -25 25 -23 0 -25 -3 -25 -50 l0 -50 -75 0 -75 0 0 213 c0 118 3 217 7 220 3 4
  37 7 75 7 l68 0 0 -50z" transform="scale(0.1)"/>
</svg>
